<mxfile host="app.diagrams.net" modified="2023-11-18T14:12:38.521Z" agent="Mozilla/5.0 (X11; Linux x86_64) AppleWebKit/537.36 (KHTML, like Gecko) Chrome/119.0.0.0 Safari/537.36" etag="F1OwvedWcGqGGUH_adfv" version="22.1.3" type="github">
  <diagram name="Page-1" id="UHZMiW5YhYznzZMvIfxP">
    <mxGraphModel dx="840" dy="524" grid="1" gridSize="10" guides="1" tooltips="1" connect="1" arrows="1" fold="1" page="1" pageScale="1" pageWidth="850" pageHeight="1100" math="0" shadow="0">
      <root>
        <mxCell id="0" />
        <mxCell id="1" parent="0" />
        <mxCell id="wWBxMGY68zCdCBMMZ8tN-27" value="" style="rounded=0;whiteSpace=wrap;html=1;fillColor=#cce5ff;strokeColor=#36393d;" vertex="1" parent="1">
          <mxGeometry x="80" y="190" width="650" height="260" as="geometry" />
        </mxCell>
        <mxCell id="wWBxMGY68zCdCBMMZ8tN-24" value="" style="group" vertex="1" connectable="0" parent="1">
          <mxGeometry x="92" y="223" width="630" height="190" as="geometry" />
        </mxCell>
        <mxCell id="wWBxMGY68zCdCBMMZ8tN-19" value="" style="group" vertex="1" connectable="0" parent="wWBxMGY68zCdCBMMZ8tN-24">
          <mxGeometry width="493.5" height="190" as="geometry" />
        </mxCell>
        <mxCell id="wWBxMGY68zCdCBMMZ8tN-2" value="" style="group" vertex="1" connectable="0" parent="wWBxMGY68zCdCBMMZ8tN-19">
          <mxGeometry width="493.5" height="45.238095238095234" as="geometry" />
        </mxCell>
        <mxCell id="sji7uYJ8y6icnitljx_J-7" value="" style="group;align=center;fontSize=23;" parent="wWBxMGY68zCdCBMMZ8tN-2" vertex="1" connectable="0">
          <mxGeometry width="408.41379310344837" height="45.238095238095234" as="geometry" />
        </mxCell>
        <mxCell id="sji7uYJ8y6icnitljx_J-1" value="5" style="rounded=0;whiteSpace=wrap;html=1;flipV=1;flipH=1;fontSize=23;fillColor=#dae8fc;strokeColor=#6c8ebf;" parent="sji7uYJ8y6icnitljx_J-7" vertex="1">
          <mxGeometry x="85.08620689655176" width="68.06896551724138" height="45.238095238095234" as="geometry" />
        </mxCell>
        <mxCell id="sji7uYJ8y6icnitljx_J-2" value="3" style="rounded=0;whiteSpace=wrap;html=1;flipV=1;flipH=1;fontSize=23;" parent="sji7uYJ8y6icnitljx_J-7" vertex="1">
          <mxGeometry width="68.06896551724138" height="45.238095238095234" as="geometry" />
        </mxCell>
        <mxCell id="sji7uYJ8y6icnitljx_J-3" value="5`" style="rounded=0;whiteSpace=wrap;html=1;flipV=1;flipH=1;fontSize=23;fillColor=#dae8fc;strokeColor=#6c8ebf;" parent="sji7uYJ8y6icnitljx_J-7" vertex="1">
          <mxGeometry x="340.34482758620703" width="68.06896551724138" height="45.238095238095234" as="geometry" />
        </mxCell>
        <mxCell id="sji7uYJ8y6icnitljx_J-4" value="1" style="rounded=0;whiteSpace=wrap;html=1;flipV=1;flipH=1;fontSize=23;" parent="sji7uYJ8y6icnitljx_J-7" vertex="1">
          <mxGeometry x="255.2586206896552" width="68.06896551724138" height="45.238095238095234" as="geometry" />
        </mxCell>
        <mxCell id="sji7uYJ8y6icnitljx_J-5" value="2" style="rounded=0;whiteSpace=wrap;html=1;flipV=1;flipH=1;fontSize=23;" parent="sji7uYJ8y6icnitljx_J-7" vertex="1">
          <mxGeometry x="170.17241379310352" width="68.06896551724138" height="45.238095238095234" as="geometry" />
        </mxCell>
        <mxCell id="wWBxMGY68zCdCBMMZ8tN-1" value="10" style="rounded=0;whiteSpace=wrap;html=1;flipV=1;flipH=1;fontSize=23;" vertex="1" parent="wWBxMGY68zCdCBMMZ8tN-2">
          <mxGeometry x="425.43103448275866" width="68.06896551724137" height="45.238095238095234" as="geometry" />
        </mxCell>
        <mxCell id="wWBxMGY68zCdCBMMZ8tN-3" value="" style="group;rounded=1;" vertex="1" connectable="0" parent="wWBxMGY68zCdCBMMZ8tN-19">
          <mxGeometry y="72.38095238095238" width="493.5" height="45.238095238095234" as="geometry" />
        </mxCell>
        <mxCell id="wWBxMGY68zCdCBMMZ8tN-4" value="" style="group;align=center;fontSize=23;" vertex="1" connectable="0" parent="wWBxMGY68zCdCBMMZ8tN-3">
          <mxGeometry width="408.41379310344837" height="45.238095238095234" as="geometry" />
        </mxCell>
        <mxCell id="wWBxMGY68zCdCBMMZ8tN-5" value="2" style="rounded=0;whiteSpace=wrap;html=1;flipV=1;flipH=1;fontSize=23;" vertex="1" parent="wWBxMGY68zCdCBMMZ8tN-4">
          <mxGeometry x="85.08620689655176" width="68.06896551724138" height="45.238095238095234" as="geometry" />
        </mxCell>
        <mxCell id="wWBxMGY68zCdCBMMZ8tN-6" value="1" style="rounded=0;whiteSpace=wrap;html=1;flipV=1;flipH=1;fontSize=23;" vertex="1" parent="wWBxMGY68zCdCBMMZ8tN-4">
          <mxGeometry width="68.06896551724138" height="45.238095238095234" as="geometry" />
        </mxCell>
        <mxCell id="wWBxMGY68zCdCBMMZ8tN-7" value="5`" style="rounded=0;whiteSpace=wrap;html=1;flipV=1;flipH=1;fontSize=23;fillColor=#d5e8d4;strokeColor=#82b366;" vertex="1" parent="wWBxMGY68zCdCBMMZ8tN-4">
          <mxGeometry x="340.34482758620703" width="68.06896551724138" height="45.238095238095234" as="geometry" />
        </mxCell>
        <mxCell id="wWBxMGY68zCdCBMMZ8tN-8" value="5" style="rounded=0;whiteSpace=wrap;html=1;flipV=1;flipH=1;fontSize=23;fillColor=#d5e8d4;strokeColor=#82b366;" vertex="1" parent="wWBxMGY68zCdCBMMZ8tN-4">
          <mxGeometry x="255.2586206896552" width="68.06896551724138" height="45.238095238095234" as="geometry" />
        </mxCell>
        <mxCell id="wWBxMGY68zCdCBMMZ8tN-9" value="3" style="rounded=0;whiteSpace=wrap;html=1;flipV=1;flipH=1;fontSize=23;" vertex="1" parent="wWBxMGY68zCdCBMMZ8tN-4">
          <mxGeometry x="170.17241379310352" width="68.06896551724138" height="45.238095238095234" as="geometry" />
        </mxCell>
        <mxCell id="wWBxMGY68zCdCBMMZ8tN-10" value="10" style="rounded=0;whiteSpace=wrap;html=1;flipV=1;flipH=1;fontSize=23;" vertex="1" parent="wWBxMGY68zCdCBMMZ8tN-3">
          <mxGeometry x="425.43103448275866" width="68.06896551724137" height="45.238095238095234" as="geometry" />
        </mxCell>
        <mxCell id="wWBxMGY68zCdCBMMZ8tN-11" value="" style="group" vertex="1" connectable="0" parent="wWBxMGY68zCdCBMMZ8tN-19">
          <mxGeometry y="144.76190476190476" width="493.5" height="45.238095238095234" as="geometry" />
        </mxCell>
        <mxCell id="wWBxMGY68zCdCBMMZ8tN-12" value="" style="group;align=center;fontSize=23;" vertex="1" connectable="0" parent="wWBxMGY68zCdCBMMZ8tN-11">
          <mxGeometry width="408.41379310344837" height="45.238095238095234" as="geometry" />
        </mxCell>
        <mxCell id="wWBxMGY68zCdCBMMZ8tN-13" value="2" style="rounded=0;whiteSpace=wrap;html=1;flipV=1;flipH=1;fontSize=23;" vertex="1" parent="wWBxMGY68zCdCBMMZ8tN-12">
          <mxGeometry x="85.08620689655176" width="68.06896551724138" height="45.238095238095234" as="geometry" />
        </mxCell>
        <mxCell id="wWBxMGY68zCdCBMMZ8tN-14" value="1" style="rounded=0;whiteSpace=wrap;html=1;flipV=1;flipH=1;fontSize=23;" vertex="1" parent="wWBxMGY68zCdCBMMZ8tN-12">
          <mxGeometry width="68.06896551724138" height="45.238095238095234" as="geometry" />
        </mxCell>
        <mxCell id="wWBxMGY68zCdCBMMZ8tN-15" value="5" style="rounded=0;whiteSpace=wrap;html=1;flipV=1;flipH=1;fontSize=23;fillColor=#f8cecc;strokeColor=#b85450;" vertex="1" parent="wWBxMGY68zCdCBMMZ8tN-12">
          <mxGeometry x="340.34482758620703" width="68.06896551724138" height="45.238095238095234" as="geometry" />
        </mxCell>
        <mxCell id="wWBxMGY68zCdCBMMZ8tN-16" value="5`" style="rounded=0;whiteSpace=wrap;html=1;flipV=1;flipH=1;fontSize=23;fillColor=#f8cecc;strokeColor=#b85450;" vertex="1" parent="wWBxMGY68zCdCBMMZ8tN-12">
          <mxGeometry x="255.2586206896552" width="68.06896551724138" height="45.238095238095234" as="geometry" />
        </mxCell>
        <mxCell id="wWBxMGY68zCdCBMMZ8tN-17" value="3" style="rounded=0;whiteSpace=wrap;html=1;flipV=1;flipH=1;fontSize=23;" vertex="1" parent="wWBxMGY68zCdCBMMZ8tN-12">
          <mxGeometry x="170.17241379310352" width="68.06896551724138" height="45.238095238095234" as="geometry" />
        </mxCell>
        <mxCell id="wWBxMGY68zCdCBMMZ8tN-18" value="10" style="rounded=0;whiteSpace=wrap;html=1;flipV=1;flipH=1;fontSize=23;" vertex="1" parent="wWBxMGY68zCdCBMMZ8tN-11">
          <mxGeometry x="425.43103448275866" width="68.06896551724137" height="45.238095238095234" as="geometry" />
        </mxCell>
        <mxCell id="wWBxMGY68zCdCBMMZ8tN-23" value="" style="group" vertex="1" connectable="0" parent="wWBxMGY68zCdCBMMZ8tN-24">
          <mxGeometry x="525" width="105" height="190" as="geometry" />
        </mxCell>
        <mxCell id="wWBxMGY68zCdCBMMZ8tN-20" value="unsorted&amp;nbsp;" style="text;html=1;strokeColor=none;fillColor=none;align=center;verticalAlign=middle;whiteSpace=wrap;rounded=0;fontSize=16;" vertex="1" parent="wWBxMGY68zCdCBMMZ8tN-23">
          <mxGeometry width="105" height="50" as="geometry" />
        </mxCell>
        <mxCell id="wWBxMGY68zCdCBMMZ8tN-21" value="unstable sort" style="text;html=1;strokeColor=none;fillColor=none;align=center;verticalAlign=middle;whiteSpace=wrap;rounded=0;fontSize=16;" vertex="1" parent="wWBxMGY68zCdCBMMZ8tN-23">
          <mxGeometry y="140" width="105" height="50" as="geometry" />
        </mxCell>
        <mxCell id="wWBxMGY68zCdCBMMZ8tN-22" value="stable sort" style="text;html=1;strokeColor=none;fillColor=none;align=center;verticalAlign=middle;whiteSpace=wrap;rounded=0;fontSize=16;" vertex="1" parent="wWBxMGY68zCdCBMMZ8tN-23">
          <mxGeometry y="70" width="105" height="55" as="geometry" />
        </mxCell>
      </root>
    </mxGraphModel>
  </diagram>
</mxfile>
